<?xml version="1.0" encoding="UTF-8"?>
<svg version="1.1" xmlns="http://www.w3.org/2000/svg" width="135" height="135">
<path d="M0 0 C0.95377533 -0.00686325 1.90755066 -0.0137265 2.89022827 -0.02079773 C6.02796518 -0.03902709 9.16520025 -0.03523369 12.30297852 -0.02954102 C14.49341493 -0.03410461 16.68384992 -0.03941072 18.87428284 -0.04542542 C23.45970485 -0.05434892 28.04495263 -0.0519419 32.63037109 -0.04199219 C38.49581694 -0.03050288 44.36066072 -0.05071777 50.22602749 -0.07990932 C54.74802955 -0.09828743 59.26988775 -0.09797562 63.7919178 -0.0922718 C65.95398872 -0.09211879 68.11606951 -0.09814647 70.27810478 -0.11056328 C73.3055751 -0.12550176 76.33193844 -0.11477474 79.359375 -0.09765625 C80.68832039 -0.1121582 80.68832039 -0.1121582 82.04411316 -0.12695312 C89.55439023 -0.03838297 95.72272248 2.27856247 101.05688477 7.71655273 C101.59958008 8.24893555 102.14227539 8.78131836 102.70141602 9.32983398 C107.18461732 15.35661852 107.68530474 20.88729472 107.6484375 28.15966797 C107.65530075 29.1134433 107.662164 30.06721863 107.66923523 31.04989624 C107.68746459 34.18763315 107.68367119 37.32486822 107.67797852 40.46264648 C107.68254211 42.6530829 107.68784822 44.84351789 107.69386292 47.03395081 C107.70278642 51.61937282 107.7003794 56.2046206 107.69042969 60.79003906 C107.67894038 66.65548491 107.69915527 72.52032868 107.72834682 78.38569546 C107.74672493 82.90769752 107.74641312 87.42955572 107.7407093 91.95158577 C107.74055629 94.11365669 107.74658397 96.27573748 107.75900078 98.43777275 C107.77393926 101.46524307 107.76321224 104.49160641 107.74609375 107.51904297 C107.7605957 108.84798836 107.7605957 108.84798836 107.77539062 110.20378113 C107.68682047 117.7140582 105.36987503 123.88239044 99.93188477 129.21655273 C99.13331055 130.0305957 99.13331055 130.0305957 98.31860352 130.86108398 C92.29181898 135.34428529 86.76114278 135.84497271 79.48876953 135.80810547 C78.05810654 135.81840034 78.05810654 135.81840034 76.59854126 135.8289032 C73.46080435 135.84713256 70.32356928 135.84333916 67.18579102 135.83764648 C64.9953546 135.84221008 62.80491961 135.84751619 60.61448669 135.85353088 C56.02906468 135.86245439 51.4438169 135.86004737 46.85839844 135.85009766 C40.99295259 135.83860835 35.12810882 135.85882324 29.26274204 135.88801479 C24.74073998 135.90639289 20.21888178 135.90608109 15.69685173 135.90037727 C13.53478081 135.90022426 11.37270002 135.90625194 9.21066475 135.91866875 C6.18319443 135.93360723 3.15683109 135.92288021 0.12939453 135.90576172 C-1.19955086 135.92026367 -1.19955086 135.92026367 -2.55534363 135.93505859 C-10.0656207 135.84648844 -16.23395294 133.529543 -21.56811523 128.09155273 C-22.3821582 127.29297852 -22.3821582 127.29297852 -23.21264648 126.47827148 C-27.69584779 120.45148694 -28.19653521 114.92081075 -28.15966797 107.6484375 C-28.16653122 106.69466217 -28.17339447 105.74088684 -28.1804657 104.75820923 C-28.19869506 101.62047232 -28.19490166 98.48323725 -28.18920898 95.34545898 C-28.19377258 93.15502257 -28.19907869 90.96458758 -28.20509338 88.77415466 C-28.21401689 84.18873265 -28.21160987 79.60348487 -28.20166016 75.01806641 C-28.19017085 69.15262056 -28.21038574 63.28777678 -28.23957729 57.42241001 C-28.25795539 52.90040795 -28.25764359 48.37854975 -28.25193977 43.8565197 C-28.25178676 41.69444878 -28.25781444 39.53236799 -28.27023125 37.37033272 C-28.28516973 34.3428624 -28.27444271 31.31649906 -28.25732422 28.2890625 C-28.26699219 27.40309891 -28.27666016 26.51713531 -28.28662109 25.60432434 C-28.19805094 18.09404727 -25.8811055 11.92571502 -20.44311523 6.59155273 C-19.91073242 6.04885742 -19.37834961 5.50616211 -18.82983398 4.94702148 C-12.80304944 0.46382018 -7.27237325 -0.03686724 0 0 Z " fill="#FDF7F6" transform="translate(27.755615234375,-0.404052734375)"/>
<path d="M0 0 C0.95377533 -0.00686325 1.90755066 -0.0137265 2.89022827 -0.02079773 C6.02796518 -0.03902709 9.16520025 -0.03523369 12.30297852 -0.02954102 C14.49341493 -0.03410461 16.68384992 -0.03941072 18.87428284 -0.04542542 C23.45970485 -0.05434892 28.04495263 -0.0519419 32.63037109 -0.04199219 C38.49581694 -0.03050288 44.36066072 -0.05071777 50.22602749 -0.07990932 C54.74802955 -0.09828743 59.26988775 -0.09797562 63.7919178 -0.0922718 C65.95398872 -0.09211879 68.11606951 -0.09814647 70.27810478 -0.11056328 C73.3055751 -0.12550176 76.33193844 -0.11477474 79.359375 -0.09765625 C80.68832039 -0.1121582 80.68832039 -0.1121582 82.04411316 -0.12695312 C89.55439023 -0.03838297 95.72272248 2.27856247 101.05688477 7.71655273 C101.59958008 8.24893555 102.14227539 8.78131836 102.70141602 9.32983398 C107.18461732 15.35661852 107.68530474 20.88729472 107.6484375 28.15966797 C107.65530075 29.1134433 107.662164 30.06721863 107.66923523 31.04989624 C107.68746459 34.18763315 107.68367119 37.32486822 107.67797852 40.46264648 C107.68254211 42.6530829 107.68784822 44.84351789 107.69386292 47.03395081 C107.70278642 51.61937282 107.7003794 56.2046206 107.69042969 60.79003906 C107.67894038 66.65548491 107.69915527 72.52032868 107.72834682 78.38569546 C107.74672493 82.90769752 107.74641312 87.42955572 107.7407093 91.95158577 C107.74055629 94.11365669 107.74658397 96.27573748 107.75900078 98.43777275 C107.77393926 101.46524307 107.76321224 104.49160641 107.74609375 107.51904297 C107.7605957 108.84798836 107.7605957 108.84798836 107.77539062 110.20378113 C107.68682047 117.7140582 105.36987503 123.88239044 99.93188477 129.21655273 C99.13331055 130.0305957 99.13331055 130.0305957 98.31860352 130.86108398 C92.29181898 135.34428529 86.76114278 135.84497271 79.48876953 135.80810547 C78.05810654 135.81840034 78.05810654 135.81840034 76.59854126 135.8289032 C73.46080435 135.84713256 70.32356928 135.84333916 67.18579102 135.83764648 C64.9953546 135.84221008 62.80491961 135.84751619 60.61448669 135.85353088 C56.02906468 135.86245439 51.4438169 135.86004737 46.85839844 135.85009766 C40.99295259 135.83860835 35.12810882 135.85882324 29.26274204 135.88801479 C24.74073998 135.90639289 20.21888178 135.90608109 15.69685173 135.90037727 C13.53478081 135.90022426 11.37270002 135.90625194 9.21066475 135.91866875 C6.18319443 135.93360723 3.15683109 135.92288021 0.12939453 135.90576172 C-1.19955086 135.92026367 -1.19955086 135.92026367 -2.55534363 135.93505859 C-10.0656207 135.84648844 -16.23395294 133.529543 -21.56811523 128.09155273 C-22.3821582 127.29297852 -22.3821582 127.29297852 -23.21264648 126.47827148 C-27.69584779 120.45148694 -28.19653521 114.92081075 -28.15966797 107.6484375 C-28.16653122 106.69466217 -28.17339447 105.74088684 -28.1804657 104.75820923 C-28.19869506 101.62047232 -28.19490166 98.48323725 -28.18920898 95.34545898 C-28.19377258 93.15502257 -28.19907869 90.96458758 -28.20509338 88.77415466 C-28.21401689 84.18873265 -28.21160987 79.60348487 -28.20166016 75.01806641 C-28.19017085 69.15262056 -28.21038574 63.28777678 -28.23957729 57.42241001 C-28.25795539 52.90040795 -28.25764359 48.37854975 -28.25193977 43.8565197 C-28.25178676 41.69444878 -28.25781444 39.53236799 -28.27023125 37.37033272 C-28.28516973 34.3428624 -28.27444271 31.31649906 -28.25732422 28.2890625 C-28.26699219 27.40309891 -28.27666016 26.51713531 -28.28662109 25.60432434 C-28.19805094 18.09404727 -25.8811055 11.92571502 -20.44311523 6.59155273 C-19.91073242 6.04885742 -19.37834961 5.50616211 -18.82983398 4.94702148 C-12.80304944 0.46382018 -7.27237325 -0.03686724 0 0 Z M60.24438477 13.40405273 C56.74201282 14.39507759 54.41825775 14.41400401 50.93188477 13.46655273 C35.19257992 10.07042297 20.78233241 12.88409243 7.09985352 21.36108398 C-1.07327116 27.20861368 -7.38279333 34.35777742 -11.75561523 43.40405273 C-12.16811523 44.23678711 -12.58061523 45.06952148 -13.00561523 45.92749023 C-18.08806101 58.24536229 -17.70528562 75.12233064 -13.07592773 87.52124023 C-5.92317724 103.13878421 4.52107397 114.29231107 20.61938477 120.84155273 C33.52276812 124.72770861 48.97080891 123.77263843 61.24438477 118.40405273 C62.0474707 118.05342773 62.85055664 117.70280273 63.67797852 117.34155273 C78.10880268 110.1386457 86.99999001 97.45813384 92.22094727 82.63061523 C95.88756831 70.1229827 95.27301879 58.42491647 90.93579102 46.25952148 C89.99277739 42.36492847 90.86453753 40.16759319 92.42016602 36.58374023 C94.4796878 31.13723239 93.98016518 25.34651164 91.61938477 20.09155273 C88.87951827 15.3160812 85.49573912 12.47856277 80.49438477 10.09155273 C72.39625351 8.37848651 67.1611841 8.9284767 60.24438477 13.40405273 Z " fill="#EB4F52" transform="translate(27.755615234375,-0.404052734375)"/>
<path d="M0 0 C0.14695312 0.97839844 0.14695312 0.97839844 0.296875 1.9765625 C1.48411579 8.91578025 3.20324271 13.47609708 8.5625 18.3125 C12.36954981 20.94814987 15.66178078 21.22185447 20.1875 21.5625 C21.27417969 21.64628906 22.36085938 21.73007812 23.48046875 21.81640625 C24.31191406 21.87699219 25.14335938 21.93757813 26 22 C30.27532998 32.50021044 29.44397139 47.08457785 25.25390625 57.46484375 C20.44692692 67.18362751 13.61825006 74.7827795 4 80 C3.34 80 2.68 80 2 80 C3.43770951 76.16610796 5.19830545 72.58436131 7.09765625 68.96484375 C11.09422383 60.2623611 10.20229757 47.37101156 8.1640625 38.265625 C4.44238058 28.62422084 -2.51481138 20.33462921 -12 16 C-22.93646783 11.76597562 -33.74251495 11.54706226 -44.66015625 15.83203125 C-47.01125326 17.00561724 -48.95776399 18.35394834 -51 20 C-51.66 19.67 -52.32 19.34 -53 19 C-45.99562893 8.78529219 -37.86660354 1.58024665 -25.625 -1.62109375 C-17.08886187 -2.85324464 -8.21505248 -2.68246611 0 0 Z " fill="#EB5A50" transform="translate(81,27)"/>
<path d="M0 0 C6.56476028 3.95267671 10.92651151 9.65568207 13.50390625 16.953125 C14.93475856 25.76081591 15.12863768 35.15912908 10.484375 42.9921875 C6.87298477 47.70344958 2.87281011 52.03165376 -3.14453125 53.1171875 C-2.62052734 52.10398437 -2.62052734 52.10398437 -2.0859375 51.0703125 C-1.63089844 50.17828125 -1.17585938 49.28625 -0.70703125 48.3671875 C-0.25457031 47.48546875 0.19789062 46.60375 0.6640625 45.6953125 C3.4973976 39.56416113 4.13207628 32.82517617 1.9140625 26.3828125 C-1.2769664 19.62063213 -4.94818742 15.46558234 -12.0625 12.66015625 C-18.59153868 10.95746136 -25.37789797 11.27721502 -31.2890625 14.62890625 C-34.34753293 17.08212148 -36.54214526 20.10470615 -38.796875 23.2890625 C-39.24160156 23.89234375 -39.68632813 24.495625 -40.14453125 25.1171875 C-40.47453125 25.1171875 -40.80453125 25.1171875 -41.14453125 25.1171875 C-41.86980233 18.44469357 -39.86837377 13.64679124 -36.14453125 8.1171875 C-26.50594861 -2.54830956 -13.3685172 -7.06169397 0 0 Z " fill="#E85157" transform="translate(65.14453125,54.8828125)"/>
<path d="M0 0 C0.14695312 0.97839844 0.14695312 0.97839844 0.296875 1.9765625 C1.62161065 9.71941398 4.17985778 14.59558223 10 20 C7.03 20.33 4.06 20.66 1 21 C0.67 22.32 0.34 23.64 0 25 C-0.4125 24.61328125 -0.825 24.2265625 -1.25 23.828125 C-10.51728196 15.47102252 -20.2511389 12.48802594 -32.671875 12.67578125 C-39.55312552 13.34613781 -45.61861567 15.66257937 -51 20 C-51.66 19.67 -52.32 19.34 -53 19 C-45.99562893 8.78529219 -37.86660354 1.58024665 -25.625 -1.62109375 C-17.08886187 -2.85324464 -8.21505248 -2.68246611 0 0 Z " fill="#EA5153" transform="translate(81,27)"/>
<path d="M0 0 C3.16118708 1.63913404 5.26864575 3.00269875 7.375 5.875 C8.68075892 10.31458033 8.4914727 13.07166267 6.3125 17.1875 C2.99790548 21.2187636 0.74901025 22.74559851 -4.4375 23.5 C-9.16675851 22.83624442 -10.65681791 21.34318209 -14 18 C-15.89111162 14.21777675 -15.75206324 10.09874463 -15 6 C-11.27729138 0.21164209 -6.50415595 -1.03240571 0 0 Z " fill="#E84D59" transform="translate(50,78)"/>
<path d="M0 0 C2.75329021 1.79562405 4.52627461 3.05254922 6 6 C6.43023798 9.87214182 6.31669086 11.52496371 4.125 14.8125 C1.61855093 17.39266816 0.74538327 17.91717964 -2.8125 18.3125 C-6.7307645 17.92835642 -8.21293267 16.70743683 -11 14 C-12.56935594 10.86128812 -12.35201103 8.46144178 -12 5 C-8.57935012 0.12816532 -5.85570965 -0.94109619 0 0 Z " fill="#EE564A" transform="translate(104,20)"/>
<path d="M0 0 C0.66 0 1.32 0 2 0 C3.46343456 2.92686912 3.1704426 5.55453613 3.1875 8.8125 C3.20167969 10.03582031 3.21585938 11.25914063 3.23046875 12.51953125 C3.01147479 15.82671123 2.42682853 18.0391898 1 21 C0.01 21 -0.98 21 -2 21 C-2.33 22.32 -2.66 23.64 -3 25 C-3.66 25 -4.32 25 -5 25 C-5.05382106 22.37472811 -5.09358313 19.75055287 -5.125 17.125 C-5.14175781 16.37863281 -5.15851563 15.63226563 -5.17578125 14.86328125 C-5.1933959 12.90805539 -5.10320189 10.95257979 -5 9 C-4.34 8.34 -3.68 7.68 -3 7 C-2.30899447 5.00827818 -1.64097297 3.00838196 -1 1 C-0.67 0.67 -0.34 0.34 0 0 Z " fill="#EC5150" transform="translate(75,73)"/>
<path d="M0 0 C3.6245918 6.60054384 3.1476407 15.86315562 1.16015625 23.02734375 C-1.5282673 28.90204706 -5.57550104 33.47353646 -11 37 C-13.24609375 37.68359375 -13.24609375 37.68359375 -15 38 C-14.65066406 37.32453125 -14.30132812 36.6490625 -13.94140625 35.953125 C-13.48636719 35.06109375 -13.03132813 34.1690625 -12.5625 33.25 C-12.11003906 32.36828125 -11.65757813 31.4865625 -11.19140625 30.578125 C-9.35298525 26.5999025 -8.86167577 23.37034766 -8.875 19 C-8.87113281 17.7315625 -8.87113281 17.7315625 -8.8671875 16.4375 C-8.99166289 14.15301056 -9.36122543 12.19008426 -10 10 C-9.34 10 -8.68 10 -8 10 C-6.40587716 13.18824568 -6.89825265 16.62896662 -6.9375 20.125 C-6.94201172 20.87910156 -6.94652344 21.63320312 -6.95117188 22.41015625 C-6.96296501 24.27347127 -6.98090058 26.13674555 -7 28 C-6.34 27.67 -5.68 27.34 -5 27 C-4.67 26.01 -4.34 25.02 -4 24 C-3.01 24 -2.02 24 -1 24 C0.29235715 19.08497242 0.11135517 14.22709898 0.0625 9.1875 C0.05798828 8.30384766 0.05347656 7.42019531 0.04882812 6.50976562 C0.03709866 4.33981441 0.01916495 2.16989828 0 0 Z " fill="#DC6465" transform="translate(77,70)"/>
<path d="M0 0 C6.86768549 0.41456416 11.67918971 0.96393982 17.3046875 5.01953125 C16.9746875 6.00953125 16.6446875 6.99953125 16.3046875 8.01953125 C15.5415625 7.54515625 14.7784375 7.07078125 13.9921875 6.58203125 C8.884014 3.61216293 4.09137511 3.35014273 -1.6953125 4.01953125 C-4.26708891 5.1055021 -6.33198009 6.49031616 -8.6953125 8.01953125 C-12.27730399 9.04036618 -14.72718497 9.00324722 -18.3125 8.08984375 C-23.86805275 6.86329314 -29.15177438 6.79103266 -34.8203125 6.89453125 C-35.77679688 6.90355469 -36.73328125 6.91257812 -37.71875 6.921875 C-40.04454775 6.94513298 -42.36978544 6.97780912 -44.6953125 7.01953125 C-41.57030321 5.19487656 -39.30519922 4.77190336 -35.703125 4.7890625 C-34.27419922 4.79196289 -34.27419922 4.79196289 -32.81640625 4.79492188 C-31.82769531 4.80716797 -30.83898437 4.81941406 -29.8203125 4.83203125 C-28.34884766 4.83299805 -28.34884766 4.83299805 -26.84765625 4.83398438 C-22.02559379 4.86326816 -17.43407874 5.01555535 -12.6953125 6.01953125 C-12.6953125 5.35953125 -12.6953125 4.69953125 -12.6953125 4.01953125 C-10.7153125 4.34953125 -8.7353125 4.67953125 -6.6953125 5.01953125 C-6.6953125 4.35953125 -6.6953125 3.69953125 -6.6953125 3.01953125 C-5.7053125 2.35953125 -4.7153125 1.69953125 -3.6953125 1.01953125 C-2.6953125 0.01953125 -2.6953125 0.01953125 0 0 Z " fill="#DE645E" transform="translate(96.6953125,5.98046875)"/>
<path d="M0 0 C2.6690036 2.55295997 3.88428838 3.98173778 4.3125 7.75 C3.9148114 11.88596145 2.62359816 13.80913737 0 17 C-2.98019727 19.41637617 -4.730115 19.96685623 -8.5625 20.4375 C-12.50074253 19.93626913 -13.60114545 19.07053382 -16 16 C-11.545 16.99 -11.545 16.99 -7 18 C-6.67 16.68 -6.34 15.36 -6 14 C-4.5625 12.25 -4.5625 12.25 -3 11 C-2.34 11 -1.68 11 -1 11 C-0.67 10.01 -0.34 9.02 0 8 C0.66 8 1.32 8 2 8 C1.67 7.4225 1.34 6.845 1 6.25 C0 4 0 4 0 0 Z " fill="#E0555E" transform="translate(54,81)"/>
<path d="M0 0 C-0.8125 2.4375 -0.8125 2.4375 -2 5 C-2.99 5.33 -3.98 5.66 -5 6 C-5 7.65 -5 9.3 -5 11 C-4.01 11.33 -3.02 11.66 -2 12 C-3.36125 13.051875 -3.36125 13.051875 -4.75 14.125 C-7.92210474 16.74217389 -9.82404218 19.53458569 -12 23 C-12.33 23 -12.66 23 -13 23 C-13.72736911 16.30820415 -11.55749877 11.62731624 -8 6 C-3.14059406 0 -3.14059406 0 0 0 Z " fill="#DF5362" transform="translate(37,57)"/>
<path d="M0 0 C1.08874435 3.26623305 0.85772145 3.85490001 0 7 C-0.84215396 18.85012708 -0.60731942 30.6197661 3 42 C2.34 42 1.68 42 1 42 C1 41.01 1 40.02 1 39 C0.34 39 -0.32 39 -1 39 C-2.20272819 36.59454362 -2.10071472 35.05003047 -2.0625 32.375 C-2.05347656 31.55773437 -2.04445313 30.74046875 -2.03515625 29.8984375 C-2.02355469 29.27195312 -2.01195312 28.64546875 -2 28 C-2.66 27.67 -3.32 27.34 -4 27 C-3.88964039 23.60352587 -3.75912556 20.20811211 -3.625 16.8125 C-3.5940625 15.85279297 -3.563125 14.89308594 -3.53125 13.90429688 C-3.49257812 12.97294922 -3.45390625 12.04160156 -3.4140625 11.08203125 C-3.3826416 10.22843018 -3.3512207 9.3748291 -3.31884766 8.49536133 C-2.9282786 5.43869493 -2.24329915 2.24329915 0 0 Z " fill="#DA6D7E" transform="translate(13,48)"/>
<path d="M0 0 C1.31096013 1.96644019 2.60342478 3.94536548 3.875 5.9375 C5.74211803 8.62834657 7.60957187 10.78031674 10 13 C5.545 13.495 5.545 13.495 1 14 C0.67 15.32 0.34 16.64 0 18 C-2.31 16.02 -4.62 14.04 -7 12 C-3 10 -3 10 0 9 C0.66 9.33 1.32 9.66 2 10 C2 10.66 2 11.32 2 12 C2.66 12 3.32 12 4 12 C4 11.01 4 10.02 4 9 C2.68 8.67 1.36 8.34 0 8 C0 5.36 0 2.72 0 0 Z " fill="#E65A59" transform="translate(81,34)"/>
<path d="M0 0 C0.66 0.33 1.32 0.66 2 1 C1.505 1.78375 1.01 2.5675 0.5 3.375 C-1.16537965 5.78552327 -1.16537965 5.78552327 -1 8 C0.32 8.33 1.64 8.66 3 9 C2.25234375 9.25394531 1.5046875 9.50789063 0.734375 9.76953125 C-0.25046875 10.11371094 -1.2353125 10.45789062 -2.25 10.8125 C-3.22453125 11.14894531 -4.1990625 11.48539063 -5.203125 11.83203125 C-7.85948302 12.94132042 -9.79689939 14.1693283 -12 16 C-12.66 15.67 -13.32 15.34 -14 15 C-9.96886123 9.12125596 -5.52964597 4.49108302 0 0 Z " fill="#DB646E" transform="translate(42,31)"/>
<path d="M0 0 C0.33 0 0.66 0 1 0 C0.35998618 10.76988777 -1.57459521 17.06792354 -9.16015625 24.921875 C-11.0678123 26.8858563 -11.0678123 26.8858563 -12.05078125 29.1875 C-13 31 -13 31 -16.125 32.25 C-17.07375 32.4975 -18.0225 32.745 -19 33 C-18.13375 32.01 -17.2675 31.02 -16.375 30 C-15.24515459 28.6707701 -14.12033458 27.33725585 -13 26 C-12.22849609 25.07960938 -12.22849609 25.07960938 -11.44140625 24.140625 C-5.76193306 17.00071585 -2.16027348 8.83748244 0 0 Z " fill="#E36D62" transform="translate(120,78)"/>
<path d="M0 0 C0 1.98 0 3.96 0 6 C-0.495 4.515 -0.495 4.515 -1 3 C-1.66 3 -2.32 3 -3 3 C-3 2.34 -3 1.68 -3 1 C-6.87498404 0.97082766 -10.74993958 0.95314327 -14.625 0.9375 C-15.71941406 0.92912109 -16.81382813 0.92074219 -17.94140625 0.91210938 C-19.00488281 0.90888672 -20.06835938 0.90566406 -21.1640625 0.90234375 C-22.13811035 0.89710693 -23.1121582 0.89187012 -24.11572266 0.88647461 C-27.14875321 1.00585494 -30.01915268 1.44133276 -33 2 C-25.63854561 -5.36145439 -8.99176734 -2.9360873 0 0 Z " fill="#DA6D71" transform="translate(81,27)"/>
<path d="M0 0 C1.08379152 3.25137455 0.91920323 4.05142807 0.125 7.25 C-1.38154363 14.11088112 -1.64533106 20.99995522 -2 28 C-2.66 27.67 -3.32 27.34 -4 27 C-3.88964039 23.60352587 -3.75912556 20.20811211 -3.625 16.8125 C-3.5940625 15.85279297 -3.563125 14.89308594 -3.53125 13.90429688 C-3.49257812 12.97294922 -3.45390625 12.04160156 -3.4140625 11.08203125 C-3.3826416 10.22843018 -3.3512207 9.3748291 -3.31884766 8.49536133 C-2.9282786 5.43869493 -2.24329915 2.24329915 0 0 Z " fill="#D6566A" transform="translate(13,48)"/>
<path d="M0 0 C3.00710561 3.00710561 2.72195632 6.10160439 3.046875 10.22265625 C2.98707085 13.76605234 1.97146913 16.08222569 0 19 C-1.35862973 15.09519751 -0.89469712 11.2898224 -0.5625 7.25 C-0.48418945 6.20392578 -0.48418945 6.20392578 -0.40429688 5.13671875 C-0.27525928 3.42403797 -0.13840386 1.71194934 0 0 Z " fill="#E36054" transform="translate(122,58)"/>
<path d="M0 0 C0.33 0 0.66 0 1 0 C0.67 2.64 0.34 5.28 0 8 C0.66 8.33 1.32 8.66 2 9 C-3.75 13 -3.75 13 -6 13 C-4.31326082 8.50202887 -2.18326108 4.27113698 0 0 Z " fill="#DB6A66" transform="translate(89,94)"/>
<path d="M0 0 C0.66 0.66 1.32 1.32 2 2 C-0.01822917 1.90234375 -2.03645833 1.8046875 -4.0546875 1.70703125 C-4.69664063 1.80371094 -5.33859375 1.90039062 -6 2 C-6.99 3.485 -6.99 3.485 -8 5 C-8.66 5 -9.32 5 -10 5 C-10 7.97 -10 10.94 -10 14 C-12 12 -12 12 -12.4375 8.6875 C-12 5 -12 5 -9.9375 2.0625 C-6.31361351 -0.48193094 -4.34125236 -0.57337295 0 0 Z " fill="#DB716C" transform="translate(104,20)"/>
<path d="M0 0 C1.31096013 1.96644019 2.60342478 3.94536548 3.875 5.9375 C5.74211803 8.62834657 7.60957187 10.78031674 10 13 C8.02 13 6.04 13 4 13 C4 11.68 4 10.36 4 9 C2.68 8.67 1.36 8.34 0 8 C0 5.36 0 2.72 0 0 Z " fill="#E06F65" transform="translate(81,34)"/>
<path d="M0 0 C0.33 0.66 0.66 1.32 1 2 C1.99 2.33 2.98 2.66 4 3 C0.7 5.97 -2.6 8.94 -6 12 C-6.33 11.01 -6.66 10.02 -7 9 C-6.34 9 -5.68 9 -5 9 C-4.896875 8.21625 -4.79375 7.4325 -4.6875 6.625 C-4 4 -4 4 -1 2 C-0.67 1.34 -0.34 0.68 0 0 Z " fill="#DD5365" transform="translate(31,19)"/>
<path d="M0 0 C1.51400391 0.01740234 1.51400391 0.01740234 3.05859375 0.03515625 C4.07050781 0.04417969 5.08242188 0.05320312 6.125 0.0625 C7.29869141 0.07990234 7.29869141 0.07990234 8.49609375 0.09765625 C5.7551571 1.92494735 3.35784051 3.03463803 0.30859375 4.22265625 C-0.59246094 4.57585938 -1.49351563 4.9290625 -2.421875 5.29296875 C-3.45248047 5.69128906 -3.45248047 5.69128906 -4.50390625 6.09765625 C-3.43349052 0.13391149 -3.43349052 0.13391149 0 0 Z " fill="#DF5562" transform="translate(43.50390625,12.90234375)"/>
<path d="M0 0 C0.66 0.33 1.32 0.66 2 1 C0.625 3 0.625 3 -1 5 C-1.66 5 -2.32 5 -3 5 C-3.0272415 6.41655793 -3.04650467 7.83327045 -3.0625 9.25 C-3.07410156 10.03890625 -3.08570313 10.8278125 -3.09765625 11.640625 C-3.00385306 13.90691002 -2.63241063 15.8288895 -2 18 C-4.08986233 16.29920778 -4.92369885 15.37514733 -5.46875 12.6953125 C-5.55178128 5.86599006 -5.55178128 5.86599006 -3.875 3.234375 C-2.5 1.875 -2.5 1.875 0 0 Z " fill="#D65C69" transform="translate(40,79)"/>
<path d="M0 0 C0.33 0.66 0.66 1.32 1 2 C0.24606792 3.73732175 -0.51201316 5.47322122 -1.30859375 7.19140625 C-2.16366428 9.10540826 -2.16366428 9.10540826 -2 11.75 C-2 14 -2 14 -3.5 15.8125 C-3.995 16.204375 -4.49 16.59625 -5 17 C-5.7342166 10.24520726 -3.27591952 5.81475715 0 0 Z " fill="#D36271" transform="translate(29,63)"/>
<path d="M0 0 C4 4 4 4 4.4375 7.0625 C4 10 4 10 1 13 C0.67 8.71 0.34 4.42 0 0 Z " fill="#E2716B" transform="translate(106,22)"/>
<path d="M0 0 C0 0.33 0 0.66 0 1 C-1.21236328 1.05607422 -1.21236328 1.05607422 -2.44921875 1.11328125 C-3.51785156 1.17902344 -4.58648437 1.24476562 -5.6875 1.3125 C-6.74324219 1.37050781 -7.79898438 1.42851563 -8.88671875 1.48828125 C-12.05929799 1.81074484 -12.05929799 1.81074484 -14.64453125 3.60546875 C-17 5 -17 5 -19.3125 4.6875 C-19.869375 4.460625 -20.42625 4.23375 -21 4 C-13.97563746 -0.40744316 -8.17367067 -0.4485551 0 0 Z " fill="#DB6B74" transform="translate(58,52)"/>
<path d="M0 0 C0.33 0 0.66 0 1 0 C1.29036649 3.38115651 1.44908891 6.62919149 1 10 C-1.5 12.625 -1.5 12.625 -4 14 C-3.79503906 13.32453125 -3.59007813 12.6490625 -3.37890625 11.953125 C-3.10949219 11.06109375 -2.84007813 10.1690625 -2.5625 9.25 C-2.16224609 7.92742187 -2.16224609 7.92742187 -1.75390625 6.578125 C-1.11531506 4.39434165 -0.53224167 2.21164502 0 0 Z " fill="#FDE6DF" transform="translate(108,75)"/>
<path d="M0 0 C0 1.32 0 2.64 0 4 C-4.02040985 4.69584017 -7.08263419 5.1700097 -11 4 C-9.5437455 3.32880451 -8.08492133 2.66318193 -6.625 2 C-5.81289062 1.62875 -5.00078125 1.2575 -4.1640625 0.875 C-2 0 -2 0 0 0 Z " fill="#E56E67" transform="translate(95,115)"/>
<path d="M0 0 C-1.26457031 0.52400391 -1.26457031 0.52400391 -2.5546875 1.05859375 C-3.65039062 1.51363281 -4.74609375 1.96867188 -5.875 2.4375 C-6.96554688 2.88996094 -8.05609375 3.34242187 -9.1796875 3.80859375 C-10.80558624 4.49543463 -12.42131774 5.21065887 -14 6 C-14.66 5.34 -15.32 4.68 -16 4 C-14.08959948 3.1319092 -12.17139263 2.28098217 -10.25 1.4375 C-9.18265625 0.96183594 -8.1153125 0.48617188 -7.015625 -0.00390625 C-4.01630163 -0.9946154 -2.86578759 -1.16161779 0 0 Z " fill="#F9D2D5" transform="translate(56,14)"/>
<path d="M0 0 C1.14926266 0.95421808 2.29430541 1.91352045 3.4375 2.875 C4.07558594 3.40867187 4.71367187 3.94234375 5.37109375 4.4921875 C7 6 7 6 8 8 C7.01 8 6.02 8 5 8 C5 7.34 5 6.68 5 6 C4.01 6.33 3.02 6.66 2 7 C0 2.25 0 2.25 0 0 Z " fill="#DB6071" transform="translate(24,103)"/>
<path d="M0 0 C2.79948531 2.67776856 3.93811033 4.00976527 4.1875 8 C4 11 4 11 2 13 C1.855625 11.783125 1.71125 10.56625 1.5625 9.3125 C1.17219047 6.17329623 0.67648144 3.0924866 0 0 Z " fill="#DC8084" transform="translate(54,81)"/>
<path d="M0 0 C0.99 0.33 1.98 0.66 3 1 C2.67 2.32 2.34 3.64 2 5 C2.66 5 3.32 5 4 5 C3.38722388 7.96175123 2.74627478 9.38058783 1 12 C0.67 8.04 0.34 4.08 0 0 Z " fill="#F25845" transform="translate(121,20)"/>
<path d="M0 0 C2.64 1.65 5.28 3.3 8 5 C7.34 5.66 6.68 6.32 6 7 C4.02 6.34 2.04 5.68 0 5 C0 3.35 0 1.7 0 0 Z " fill="#DF5D6C" transform="translate(33,111)"/>
<path d="M0 0 C2.40072955 2.88087546 4.47291037 5.56404834 6 9 C3.525 8.01 3.525 8.01 1 7 C1 6.34 1 5.68 1 5 C0.34 5 -0.32 5 -1 5 C-0.67 3.35 -0.34 1.7 0 0 Z " fill="#DD5E6F" transform="translate(18,94)"/>
<path d="M0 0 C0.99 0.33 1.98 0.66 3 1 C2.34 2.32 1.68 3.64 1 5 C1.66 5 2.32 5 3 5 C2.34 6.98 1.68 8.96 1 11 C-0.98362069 8.08291076 -0.9876191 6.87619096 -0.625 3.25 C-0.41875 2.1775 -0.2125 1.105 0 0 Z " fill="#EB5B44" transform="translate(120,36)"/>
<path d="M0 0 C0 3.19131 -0.13209062 4.45285085 -2 7 C-5.125 7.75 -5.125 7.75 -8 8 C-5.33333333 5.33333333 -2.66666667 2.66666667 0 0 Z " fill="#FCE2DE" transform="translate(74,99)"/>
<path d="M0 0 C0.66 0.33 1.32 0.66 2 1 C1.34 4.3 0.68 7.6 0 11 C-0.66 10.67 -1.32 10.34 -2 10 C-2.25 3.375 -2.25 3.375 0 0 Z " fill="#FBE3E3" transform="translate(24,69)"/>
<path d="M0 0 C0.66 0.33 1.32 0.66 2 1 C-0.31 3.64 -2.62 6.28 -5 9 C-5.66 8.67 -6.32 8.34 -7 8 C-4.69 5.36 -2.38 2.72 0 0 Z " fill="#FADEDF" transform="translate(32,70)"/>
<path d="M0 0 C1.98 0.99 1.98 0.99 4 2 C3.67 4.97 3.34 7.94 3 11 C2.34 10.67 1.68 10.34 1 10 C0.5859375 7.71484375 0.5859375 7.71484375 0.375 4.9375 C0.30023438 4.01839844 0.22546875 3.09929688 0.1484375 2.15234375 C0.09945312 1.44207031 0.05046875 0.73179688 0 0 Z " fill="#EE5B45" transform="translate(121,48)"/>
<path d="M0 0 C-1.9626228 2.04795423 -3.4277307 2.94976638 -6.26953125 3.19921875 C-8.51954383 3.18858877 -10.75385562 3.12958525 -13 3 C-10.85642985 0.85642985 -9.92072889 0.52040399 -7.0625 -0.1875 C-6.37285156 -0.36667969 -5.68320312 -0.54585937 -4.97265625 -0.73046875 C-3 -1 -3 -1 0 0 Z " fill="#E4555E" transform="translate(57,28)"/>
<path d="M0 0 C2.5 2.3125 2.5 2.3125 5 5 C5 5.99 5 6.98 5 8 C4.34 6.68 3.68 5.36 3 4 C2.34 4 1.68 4 1 4 C0.67 4.66 0.34 5.32 0 6 C-1 3 -1 3 0 0 Z " fill="#FAE3DF" transform="translate(80,51)"/>
<path d="M0 0 C1.65 1.65 3.3 3.3 5 5 C4.67 5.66 4.34 6.32 4 7 C2.02 6.34 0.04 5.68 -2 5 C-2 4.34 -2 3.68 -2 3 C-1.34 3 -0.68 3 0 3 C0 2.01 0 1.02 0 0 Z " fill="#DF6B6C" transform="translate(70,59)"/>
<path d="M0 0 C1.43793392 0.31049726 2.8753318 0.6234776 4.3125 0.9375 C5.11300781 1.11152344 5.91351563 1.28554688 6.73828125 1.46484375 C9 2 9 2 12 3 C9.15916359 4.42041821 7.14522722 4.31452272 4 4 C1.625 2 1.625 2 0 0 Z " fill="#DF6962" transform="translate(94,34)"/>
<path d="M0 0 C0.66 0.33 1.32 0.66 2 1 C-1.465 3.97 -1.465 3.97 -5 7 C-5.66 6.67 -6.32 6.34 -7 6 C-4.69 4.02 -2.38 2.04 0 0 Z " fill="#FBDCE0" transform="translate(35,21)"/>
<path d="M0 0 C0.99 0.33 1.98 0.66 3 1 C3 1.99 3 2.98 3 4 C2.38125 4.12375 1.7625 4.2475 1.125 4.375 C-1.19120832 4.87197356 -1.19120832 4.87197356 -3 7 C-2.38722388 4.03824877 -1.74627478 2.61941217 0 0 Z " fill="#EA475B" transform="translate(28,19)"/>
</svg>
